<?xml version="1.0" encoding="utf-8"?>
<!-- Android — paths normalised to ±12-unit origin-centred canvas -->
<svg xmlns="http://www.w3.org/2000/svg" width="24" height="24" viewBox="-12 -12 24 24">
  <g transform="scale(0.03566) translate(-2183.82,-196.50)"><path fill="#34A853" d="m 2520.38,377.22997 c -0.22,-1.378 -0.43,-2.74 -0.66,-4.102 -1.39,-8.451 -3.12,-16.803 -5.13,-25.041 -3.53,-14.391 -7.97,-28.437 -13.27,-42.04 -4.48,-11.52 -9.58,-22.727 -15.24,-33.59 -7.28,-13.948 -15.49,-27.338 -24.56,-40.072 -11.12,-15.605 -23.54,-30.225 -37.1,-43.697 -5.69,-5.662 -11.58,-11.126 -17.66,-16.361 -13.17,-11.371 -27.24,-21.725 -42.06,-30.98 0.13,-0.214 0.24,-0.443 0.37,-0.657 6.79,-11.732 13.6,-23.449 20.39,-35.181 6.64,-11.453998 13.28,-22.907998 19.92,-34.360998 4.78,-8.221 9.55,-16.459 14.3,-24.68 1.13,-1.953 2.02,-3.971 2.69,-6.038 1.86,-5.76 1.94,-11.815 0.45,-17.444 -0.38,-1.394 -0.84,-2.756 -1.4,-4.085 -0.56,-1.33 -1.21,-2.626 -1.95,-3.873 -2.54,-4.266 -6.17,-7.9749997 -10.73,-10.6829997 -4.03,-2.395 -8.54,-3.823 -13.16,-4.233 -1.94,-0.164 -3.89,-0.148 -5.83,0.049 -1.6,0.164 -3.19,0.46 -4.77,0.87 -5.62,1.493 -10.84,4.578 -14.9,9.0409997 -1.46,1.608 -2.78,3.381 -3.91,5.333 -4.77,8.221 -9.54,16.459 -14.3,24.68 l -19.92,34.361 c -6.79,11.733 -13.6,23.449 -20.39,35.181998 -0.74,1.279 -1.49,2.559 -2.23,3.856 -1.03,-0.411 -2.05,-0.821 -3.08,-1.215 -37.44,-14.275998 -78.06,-22.085998 -120.52,-22.085998 -1.16,0 -2.31,0 -3.48,0.016 -37.75,0.377 -74.02,6.941 -107.86,18.722998 -3.91,1.362 -7.78,2.806 -11.62,4.316 -0.69,-1.198 -1.4,-2.396 -2.08,-3.594 -6.79,-11.732998 -13.6,-23.448998 -20.39,-35.181998 -6.64,-11.453 -13.28,-22.907 -19.92,-34.361 -4.78,-8.221 -9.55,-16.458 -14.3,-24.679 -1.14,-1.953 -2.45,-3.725 -3.91,-5.333 -4.06,-4.4639997 -9.28,-7.5489997 -14.9,-9.0419997 -1.58,-0.41 -3.17,-0.705 -4.78,-0.869 -1.93,-0.197 -3.88,-0.214 -5.82,-0.05 -4.62,0.394 -9.13,1.822 -13.17,4.234 -4.56,2.707 -8.16,6.4159997 -10.72,10.6819997 -0.74,1.247 -1.4,2.544 -1.95,3.873 -0.56,1.329 -1.04,2.691 -1.4,4.086 -1.49,5.628 -1.41,11.683 0.44,17.443 0.68,2.068 1.56,4.086 2.69,6.039 4.78,8.221 9.55,16.458 14.3,24.679 6.65,11.454 13.29,22.908 19.93,34.360998 6.79,11.733 13.59,23.449 20.38,35.182 0.05,0.098 0.12,0.197 0.17,0.295 -13.7,8.517 -26.73,17.952 -39.03,28.273 -7.37,6.187 -14.47,12.668 -21.27,19.445 -13.55,13.472 -25.96,28.093 -37.1,43.698 -9.08,12.734 -17.3,26.107 -24.56,40.072 -5.66,10.863 -10.76,22.07 -15.24,33.59 -5.3,13.603 -9.74,27.649 -13.27,42.04 -2.01,8.238 -3.72,16.574 -5.13,25.041 -0.23,1.362 -0.44,2.74 -0.65,4.102 -0.76,4.907 -1.4,9.846 -1.94,14.818 h 673.11 c -0.54,-4.972 -1.18,-9.911 -1.93,-14.818 z"/><path fill="#202124" d="m 2360.79,298.98697 c 13.47,-8.966 15.43,-29.71 4.37,-46.331 -11.05,-16.622 -30.93,-22.827 -44.39,-13.861 -13.47,8.967 -15.43,29.71 -4.37,46.331 11.05,16.622 30.93,22.828 44.39,13.861 z"/><path fill="#202124" d="m 2055.6,285.18397 c 11.06,-16.622 9.1,-37.365 -4.37,-46.331 -13.47,-8.967 -33.34,-2.761 -44.4,13.86 -11.05,16.622 -9.09,37.365 4.37,46.331 13.47,8.967 33.35,2.761 44.4,-13.86 z"/></g>
</svg>
