<?xml version="1.0" encoding="utf-8"?>
<!-- Cordova — paths normalised to ±12-unit origin-centred canvas -->
<svg xmlns="http://www.w3.org/2000/svg" width="24" height="24" viewBox="-12 -12 24 24">
  <defs><linearGradient id="cdv3450" x1="386.67" y1="402.39" x2="70.08" y2="198.42" gradientUnits="userSpaceOnUse" gradientTransform="translate(-14.85,-10.61)"><stop offset="0" stop-color="#acacac"/><stop offset="1" stop-color="#e9e9e9"/></linearGradient><linearGradient id="cdv4818" x1="367.78" y1="117.80" x2="107" y2="143.96" gradientUnits="userSpaceOnUse" gradientTransform="translate(-14.85,-10.61)"><stop offset="0" stop-color="#e5e5e5"/><stop offset="1" stop-color="#ffffff"/></linearGradient><linearGradient id="cdv4786" x1="342.03" y1="321.85" x2="326.45" y2="136.71" gradientUnits="userSpaceOnUse" gradientTransform="translate(-14.85,-10.61)"><stop offset="0" stop-color="#24303a"/><stop offset="1" stop-color="#394958"/></linearGradient><linearGradient id="cdv4796" x1="342.03" y1="321.85" x2="326.45" y2="136.71" gradientUnits="userSpaceOnUse" gradientTransform="matrix(-1,0,0,1,477.74,-10.61)"><stop offset="0" stop-color="#24303a"/><stop offset="1" stop-color="#394958"/></linearGradient><radialGradient id="cdv4773" gradientUnits="userSpaceOnUse" gradientTransform="matrix(0.92308,-11.50769,-5.89644,-0.47304,-2165.70,4248.20)" cx="355.75" cy="-334.76" r="16.25"><stop offset="0" stop-color="#25303b" stop-opacity="1"/><stop offset="1" stop-color="#25303b" stop-opacity="0"/></radialGradient><linearGradient id="cdv4842" x1="182.23" y1="190.19" x2="182.23" y2="317.94" gradientUnits="userSpaceOnUse"><stop offset="0" stop-color="#ffffff" stop-opacity="1"/><stop offset="0.5" stop-color="#ffffff" stop-opacity="0.53"/><stop offset="1" stop-color="#ffffff" stop-opacity="0"/></linearGradient><linearGradient id="cdv4854" x1="193.99" y1="190.19" x2="193.99" y2="126.35" gradientUnits="userSpaceOnUse"><stop offset="0" stop-color="#ffffff" stop-opacity="1"/><stop offset="1" stop-color="#ffffff" stop-opacity="0"/></linearGradient><filter id="cdvf4539" style="color-interpolation-filters:sRGB" x="-0.201" width="1.402" y="-0.054" height="1.107"><feGaussianBlur stdDeviation="1.11"/></filter><filter id="cdvf4710" style="color-interpolation-filters:sRGB" x="-0.415" width="1.830" y="-0.111" height="1.222"><feGaussianBlur stdDeviation="2.29"/></filter></defs><g transform="scale(0.06814) translate(-231.1,-229.7)"><path fill="#7f8082" fill-rule="evenodd" d="m 341.15271,349.75084 -23.10547,48.26758 -15.9099,-60.10408 z"/><path fill="#7f8082" fill-rule="evenodd" d="m 128.40662,349.75084 15.73047,48.26758 15.9099,-60.10408 z"/><path fill="url(#cdv3450)" fill-rule="evenodd" stroke="#d6d6d6" stroke-width="1" stroke-linejoin="round" d="m 54.984742,190.19418 -0.01172,0.0176 32.791014,207.80664 56.373052,0 -4.60547,-48.26758 28.92383,0 3.68359,48.26758 118.08984,0 3.6836,-48.26758 28.74023,0 -4.60547,48.26758 56.74024,0 32.42383,-207.80664 -0.0117,-0.0176 -352.214848,0 z"/><path fill="url(#cdv4773)" fill-rule="evenodd" d="m 135.55849,317.93931 16.95592,-63.52818 -1.19223,-128.31045 -31.799,64.0935 z"/><path fill="#293441" fill-rule="evenodd" d="m 257.328,113.53179 70.27003,0 -1.44288,155.31435 -74.24552,0 z"/><path fill="#293441" fill-rule="evenodd" d="m 206.49966,113.62857 -68.4447,0.0422 1.62166,154.62151 69.68419,0 z"/><path fill="#2d3948" fill-rule="evenodd" d="m 145.13904,254.41098 -9.58008,63.5293 191.625,0 -11.39062,-63.07618 z"/><path fill="url(#cdv4786)" fill-rule="evenodd" d="m 327.18449,317.9405 -16.64092,-63.07721 0.6253,-129.16888 32.19531,64.49609 z"/><path fill="url(#cdv4796)" fill-rule="evenodd" d="m 135.7047,317.9405 16.80971,-63.52937 -1.19223,-128.31045 -31.79717,64.08982 z"/><path fill="#2d3b48" fill-rule="evenodd" d="m 199.31573,149.42759 6.32722,134.88013 49.28521,0 7.93879,-134.88013 z"/><path fill="url(#cdv4818)" fill-rule="evenodd" stroke="#d6d6d6" stroke-width="1" stroke-linejoin="round" d="m 407.19961,190.19418 -80.54885,-128.843752 -191.5,0 -80.166,128.843752 64.54072,0 31.62528,-63.84375 52,0 -3.83503,23.07716 63.55122,0 -3.35876,-23.77646 51.79557,0 32.05995,64.54305 z"/><path fill="#363f49" fill-rule="evenodd" opacity="0.449" d="m 259.50819,125.65113 52.2352,0.0433 31.62032,64.49975 -16.17975,127.7461 -121.54101,2e-5 62.82234,-127.74612 z"/><path fill="url(#cdv4842)" fill-rule="evenodd" opacity="0.3" d="M 268.46529,190.19418 205.64295,317.9403 135.55849,317.93931 119.52318,190.19418 Z"/><path fill="url(#cdv4854)" fill-rule="evenodd" opacity="0.2" d="m 151.15076,126.35043 52,0 -3.83503,23.07716 63.55122,0 5.59834,40.76659 -148.94211,0 z"/><g transform="translate(-14.849242,-10.606602)"><g transform="matrix(0.89997913,0,0,0.97774567,-1.4952307,573.7235)"><ellipse transform="matrix(1.4992885,0,0,1.3077391,-75.688852,99.470993)" cx="272.59341" cy="-325.39865" rx="6.6297965" ry="24.805298" fill="#05f0ff" opacity="0.8" filter="url(#cdvf4710)"/><ellipse transform="matrix(1.1653261,0,0,1.1578328,-3.9564384,51.930291)" cx="289.15836" cy="-326.0542" rx="6.6297965" ry="24.805298" fill="#ffffff" opacity="0.9" stroke="#06effe" stroke-width="0.918" filter="url(#cdvf4539)"/><ellipse transform="matrix(1.1653261,0,0,1.0707089,-3.9564384,23.603105)" cx="289.15836" cy="-326.0542" rx="6.6297965" ry="24.805298" fill="#feffff" opacity="0.9" stroke="#06effe" stroke-width="0.954" filter="url(#cdvf4539)"/></g><g transform="matrix(0.89997913,0,0,0.97774567,-102.68784,578.19963)"><ellipse transform="matrix(1.4992885,0,0,1.3077391,-75.688852,99.470993)" cx="272.59341" cy="-325.39865" rx="6.6297965" ry="24.805298" fill="#05f0ff" opacity="0.8" filter="url(#cdvf4710)"/><ellipse transform="matrix(1.1653261,0,0,1.1578328,-3.9564384,51.930291)" cx="289.15836" cy="-326.0542" rx="6.6297965" ry="24.805298" fill="#ffffff" opacity="0.9" stroke="#06effe" stroke-width="0.918" filter="url(#cdvf4539)"/><ellipse transform="matrix(1.1653261,0,0,1.0707089,-3.9564384,23.603105)" cx="289.15836" cy="-326.0542" rx="6.6297965" ry="24.805298" fill="#feffff" opacity="0.9" stroke="#06effe" stroke-width="0.954" filter="url(#cdvf4539)"/></g></g><path fill="none" stroke="#d6d6d6" stroke-width="1" stroke-linejoin="round" d="m 151.15076,126.35043 52,0 -3.83503,23.07716 63.55122,0 -3.35876,-23.77646 52.2352,0.0433 31.62032,64.49975 -16.17922,127.74632 -191.626,-0.001 -16.03531,-127.74513 z"/><path fill="none" stroke="#ffffff" stroke-width="1" opacity="0.343" d="m 342.83631,190.19418 -223.46934,0"/></g>
</svg>
