<?xml version="1.0" encoding="utf-8"?>
<!-- Generator: Adobe Illustrator 14.0.0, SVG Export Plug-In  -->
<!DOCTYPE svg PUBLIC "-//W3C//DTD SVG 1.1//EN" "http://www.w3.org/Graphics/SVG/1.1/DTD/svg11.dtd" [
	<!ENTITY ns_flows "http://ns.adobe.com/Flows/1.0/">
]>
<svg version="1.1"
	 xmlns="http://www.w3.org/2000/svg" xmlns:xlink="http://www.w3.org/1999/xlink" xmlns:a="http://ns.adobe.com/AdobeSVGViewerExtensions/3.0/"
	 x="0px" y="0px" width="312px" height="136px" viewBox="-12.453 -22.492 312 136" enable-background="new -12.453 -22.492 312 136"
	 xml:space="preserve">
<defs>
</defs>
<path fill="#000000" d="M53.86,47.258h-1.59v-2.582h1.59v-2.796l3.209-1.184v3.98h3.779v2.582H57.07v6.024
	c0,0.987,0.154,1.679,0.464,2.087c0.309,0.408,0.847,0.608,1.618,0.608c0.773,0,1.491-0.205,2.159-0.626v2.956
	c-0.746,0.253-1.808,0.386-3.184,0.386c-1.373,0-2.425-0.391-3.161-1.168c-0.736-0.772-1.105-1.875-1.105-3.306V47.258L53.86,47.258
	z M70.829,47.67c-0.575-0.376-1.202-0.565-1.89-0.565c-0.747,0-1.404,0.339-1.982,1.014c-0.579,0.679-0.869,1.503-0.869,2.481v7.835
	H62.88V44.676h3.208v1.258c0.9-1.008,2.092-1.512,3.583-1.512c1.095,0,1.939,0.165,2.521,0.5L70.829,47.67L70.829,47.67z
	 M80.026,57.062c-0.293,0.479-0.802,0.867-1.526,1.173c-0.723,0.304-1.477,0.458-2.267,0.458c-1.482,0-2.644-0.374-3.494-1.115
	c-0.847-0.74-1.271-1.792-1.271-3.152c0-1.59,0.6-2.84,1.792-3.74c1.198-0.897,2.895-1.344,5.095-1.344
	c0.377,0,0.821,0.061,1.332,0.191c0-1.617-1.02-2.429-3.069-2.429c-1.205,0-2.218,0.203-3.029,0.605l-0.692-2.495
	c1.104-0.53,2.415-0.793,3.941-0.793c2.101,0,3.635,0.478,4.612,1.429c0.974,0.956,1.464,2.766,1.464,5.429v2.94
	c0,1.833,0.37,2.987,1.105,3.457c-0.269,0.463-0.562,0.75-0.886,0.854c-0.33,0.104-0.701,0.163-1.118,0.163
	c-0.466,0-0.877-0.172-1.245-0.519C80.403,57.833,80.153,57.46,80.026,57.062L80.026,57.062z M79.716,51.959
	c-0.549-0.109-0.956-0.168-1.232-0.168c-2.533,0-3.801,0.834-3.801,2.496c0,1.23,0.714,1.85,2.142,1.85
	c1.931,0,2.891-0.964,2.891-2.895V51.959L79.716,51.959z M94.307,58.435v-7.949c0-1.175-0.224-2.031-0.675-2.569
	c-0.448-0.539-1.184-0.812-2.2-0.812c-0.474,0-0.975,0.133-1.51,0.399c-0.533,0.262-0.956,0.597-1.253,0.987v9.943h-3.208V44.676
	h2.31l0.591,1.285c0.873-1.027,2.162-1.539,3.864-1.539c1.639,0,2.927,0.491,3.874,1.468c0.949,0.983,1.416,2.351,1.416,4.104v8.44
	H94.307L94.307,58.435z M99.212,57.548l1.144-2.556c0.96,0.762,2.043,1.145,3.248,1.145c1.25,0,1.878-0.446,1.878-1.338
	c0-0.521-0.19-0.952-0.567-1.284c-0.376-0.334-1.108-0.728-2.197-1.185c-2.371-0.981-3.559-2.362-3.559-4.134
	c0-1.188,0.455-2.118,1.364-2.779c0.907-0.667,2.068-0.995,3.48-0.995c1.43,0,2.776,0.321,4.035,0.961l-0.926,2.492
	c-0.701-0.599-1.679-0.897-2.929-0.897c-1.121,0-1.683,0.443-1.683,1.334c0,0.351,0.183,0.669,0.551,0.95
	c0.37,0.285,1.158,0.662,2.364,1.135c1.209,0.478,2.078,1.054,2.608,1.733c0.53,0.675,0.799,1.489,0.799,2.449
	c0,1.276-0.475,2.281-1.421,3.014c-0.947,0.73-2.231,1.101-3.862,1.101c-0.917,0-1.649-0.076-2.202-0.229
	C100.785,58.316,100.076,58.009,99.212,57.548L99.212,57.548z M112.984,39.344c0.512,0,0.95,0.185,1.314,0.547
	c0.365,0.364,0.548,0.804,0.548,1.316s-0.183,0.956-0.548,1.32c-0.364,0.363-0.802,0.544-1.314,0.544
	c-0.513,0-0.956-0.182-1.32-0.544c-0.364-0.364-0.544-0.807-0.544-1.32s0.18-0.952,0.544-1.316
	C112.028,39.529,112.471,39.344,112.984,39.344L112.984,39.344z M111.325,58.435V47.311h-1.763v-2.635h5.013v13.759H111.325
	L111.325,58.435z M116.539,57.548l1.144-2.556c0.961,0.762,2.044,1.145,3.25,1.145c1.248,0,1.876-0.446,1.876-1.338
	c0-0.521-0.188-0.952-0.565-1.284c-0.378-0.334-1.109-0.728-2.197-1.185c-2.372-0.981-3.561-2.362-3.561-4.134
	c0-1.188,0.457-2.118,1.363-2.779c0.907-0.667,2.069-0.995,3.481-0.995c1.428,0,2.774,0.321,4.033,0.961l-0.924,2.492
	c-0.703-0.599-1.681-0.897-2.929-0.897c-1.123,0-1.685,0.443-1.685,1.334c0,0.351,0.185,0.669,0.553,0.95
	c0.368,0.285,1.158,0.662,2.363,1.135c1.209,0.478,2.079,1.054,2.61,1.733c0.529,0.675,0.797,1.489,0.797,2.449
	c0,1.276-0.474,2.281-1.421,3.014c-0.947,0.73-2.23,1.101-3.863,1.101c-0.915,0-1.647-0.076-2.2-0.229
	C118.113,58.316,117.403,58.009,116.539,57.548L116.539,57.548z M128.279,47.258h-1.589v-2.582h1.589v-2.796l3.21-1.184v3.98h3.778
	v2.582h-3.778v6.024c0,0.987,0.153,1.679,0.463,2.087c0.307,0.408,0.848,0.608,1.618,0.608c0.772,0,1.491-0.205,2.159-0.626v2.956
	c-0.747,0.253-1.808,0.386-3.184,0.386c-1.373,0-2.426-0.391-3.161-1.168c-0.736-0.772-1.106-1.875-1.106-3.306V47.258
	L128.279,47.258z M136.396,51.524c0-2.101,0.608-3.806,1.818-5.125c1.21-1.32,2.811-1.978,4.797-1.978
	c2.092,0,3.714,0.631,4.872,1.898c1.152,1.266,1.731,3.003,1.731,5.204c0,2.191-0.588,3.932-1.766,5.226
	c-1.176,1.295-2.788,1.943-4.837,1.943c-2.086,0-3.713-0.654-4.875-1.961C136.979,55.425,136.396,53.69,136.396,51.524
	L136.396,51.524z M139.737,51.524c0,3.029,1.091,4.546,3.274,4.546c1.005,0,1.798-0.394,2.385-1.184
	c0.583-0.785,0.877-1.907,0.877-3.362c0-2.989-1.088-4.485-3.262-4.485c-0.999,0-1.797,0.396-2.389,1.184
	C140.035,49.012,139.737,50.112,139.737,51.524L139.737,51.524z M159.212,47.67c-0.574-0.376-1.2-0.565-1.89-0.565
	c-0.745,0-1.403,0.339-1.981,1.014c-0.58,0.679-0.869,1.503-0.869,2.481v7.835h-3.208V44.676h3.208v1.258
	c0.899-1.008,2.092-1.512,3.583-1.512c1.096,0,1.938,0.165,2.52,0.5L159.212,47.67L159.212,47.67z"/>
<path fill="#000000" d="M161.56,57.548l1.144-2.556c0.961,0.762,2.044,1.145,3.249,1.145c1.249,0,1.877-0.446,1.877-1.338
	c0-0.521-0.188-0.952-0.566-1.284c-0.377-0.334-1.109-0.728-2.194-1.185c-2.374-0.981-3.561-2.362-3.561-4.134
	c0-1.188,0.454-2.118,1.362-2.779c0.907-0.667,2.07-0.995,3.481-0.995c1.429,0,2.775,0.321,4.034,0.961l-0.927,2.492
	c-0.7-0.599-1.679-0.897-2.929-0.897c-1.121,0-1.683,0.443-1.683,1.334c0,0.351,0.185,0.669,0.553,0.95
	c0.368,0.285,1.157,0.662,2.363,1.135c1.209,0.478,2.077,1.054,2.607,1.733c0.532,0.675,0.799,1.489,0.799,2.449
	c0,1.276-0.474,2.281-1.42,3.014c-0.947,0.73-2.232,1.101-3.863,1.101c-0.917,0-1.649-0.076-2.199-0.229
	C163.134,58.316,162.423,58.009,161.56,57.548L161.56,57.548z M171.911,51.524c0-2.101,0.608-3.806,1.818-5.125
	c1.211-1.32,2.811-1.978,4.797-1.978c2.092,0,3.714,0.631,4.871,1.898c1.153,1.266,1.731,3.003,1.731,5.204
	c0,2.191-0.588,3.932-1.766,5.226c-1.175,1.295-2.788,1.943-4.837,1.943c-2.088,0-3.714-0.654-4.875-1.961
	C172.493,55.425,171.911,53.69,171.911,51.524L171.911,51.524z M175.252,51.524c0,3.029,1.092,4.546,3.274,4.546
	c1.005,0,1.798-0.394,2.386-1.184c0.583-0.785,0.877-1.907,0.877-3.362c0-2.989-1.087-4.485-3.263-4.485
	c-0.999,0-1.797,0.396-2.389,1.184C175.55,49.012,175.252,50.112,175.252,51.524L175.252,51.524z M194.447,41.979
	c-0.706-0.231-1.245-0.345-1.623-0.345c-0.604,0-1.122,0.262-1.547,0.785c-0.423,0.521-0.636,1.162-0.636,1.925
	c0,0.113,0.005,0.223,0.014,0.333h2.854v2.648h-2.802v11.11h-3.21v-11.11h-2.003v-2.648h2.017c0.064-1.684,0.564-3.047,1.495-4.081
	c0.931-1.04,2.131-1.558,3.604-1.558c0.758,0,1.688,0.168,2.784,0.5L194.447,41.979L194.447,41.979z M196.064,47.258h-1.591v-2.582
	h1.591v-2.796l3.209-1.184v3.98h3.78v2.582h-3.78v6.024c0,0.987,0.153,1.679,0.465,2.087c0.308,0.408,0.846,0.608,1.618,0.608
	c0.771,0,1.491-0.205,2.157-0.626v2.956c-0.747,0.253-1.807,0.386-3.184,0.386c-1.373,0-2.424-0.391-3.161-1.168
	c-0.736-0.772-1.104-1.875-1.104-3.306V47.258L196.064,47.258z M218.596
	"/>
<polygon fill="#000000" points="64.393,99.121 64.393,80.978 45.592,80.978 45.592,98.5 30.217,98.5 30.217,80.978 30.217,80.978
	30.217,73.29 30.217,57.939 1.389,57.939 1.389,42.565 30.217,42.565 30.217,27.214 30.217,19.527 30.217,19.527 30.217,2.003
	45.592,2.003 45.592,19.527 64.393,19.527 64.393,1.383 79.767,1.383 79.767,27.214 79.767,34.902 72.079,34.902 45.592,34.902
	45.592,65.603 72.079,65.603 79.767,65.603 79.767,73.29 79.767,99.121 64.393,99.121 "/>
<image display="none" overflow="visible" width="261" height="100" id="L9A0LB_3_" xlink:href="40882050.png" >
</image>
</svg>
